<?xml version="1.0" encoding="UTF-8" standalone="no"?>
<!-- Created with Inkscape (http://www.inkscape.org/) -->

<svg
   xmlns:dc="http://purl.org/dc/elements/1.1/"
   xmlns:cc="http://creativecommons.org/ns#"
   xmlns:rdf="http://www.w3.org/1999/02/22-rdf-syntax-ns#"
   xmlns:svg="http://www.w3.org/2000/svg"
   xmlns="http://www.w3.org/2000/svg"
   xmlns:sodipodi="http://sodipodi.sourceforge.net/DTD/sodipodi-0.dtd"
   xmlns:inkscape="http://www.inkscape.org/namespaces/inkscape"
   width="48"
   height="48"
   viewBox="0 0 12.7 12.7"
   version="1.1"
   id="svg8"
   inkscape:version="0.92.1 r15371"
   sodipodi:docname="logo.svg">
  <defs
     id="defs2">
    <inkscape:perspective
       sodipodi:type="inkscape:persp3d"
       inkscape:vp_x="6.6934877 : -1.6393775e-015 : 0"
       inkscape:vp_y="325.56816 : 945.5186 : 0"
       inkscape:vp_z="3.1741211 : 9.5537581 : 1"
       inkscape:persp3d-origin="6.35 : 4.2333333 : 1"
       id="perspective6129" />
  </defs>
  <sodipodi:namedview
     id="base"
     pagecolor="#ffffff"
     bordercolor="#666666"
     borderopacity="1.0"
     inkscape:pageopacity="0.0"
     inkscape:pageshadow="2"
     inkscape:zoom="7.9195959"
     inkscape:cx="17.373398"
     inkscape:cy="28.470422"
     inkscape:document-units="mm"
     inkscape:current-layer="layer1"
     showgrid="false"
     units="px"
     inkscape:window-width="1920"
     inkscape:window-height="1017"
     inkscape:window-x="1592"
     inkscape:window-y="-8"
     inkscape:window-maximized="1" />
  <metadata
     id="metadata5">
    <rdf:RDF>
      <cc:Work
         rdf:about="">
        <dc:format>image/svg+xml</dc:format>
        <dc:type
           rdf:resource="http://purl.org/dc/dcmitype/StillImage" />
        <dc:title></dc:title>
      </cc:Work>
    </rdf:RDF>
  </metadata>
  <g
     inkscape:label="Layer 1"
     inkscape:groupmode="layer"
     id="layer1"
     transform="translate(0,-284.3)">
    <text
       xml:space="preserve"
       style="font-style:normal;font-weight:normal;font-size:7.05555534px;line-height:1.25;font-family:sans-serif;letter-spacing:0px;word-spacing:0px;fill:#000000;fill-opacity:1;stroke:none;stroke-width:0.26458332"
       x="1.8190104"
       y="288.54279"
       id="text4597"><tspan
         sodipodi:role="line"
         id="tspan4595"
         x="1.8190104"
         y="294.78531"
         style="stroke-width:0.26458332"></tspan></text>
    <g
       sodipodi:type="inkscape:box3d"
       id="g6131"
       style="opacity:0.7;fill:#080063;fill-opacity:0.8894472;stroke:none"
       inkscape:perspectiveID="#perspective6129"
       inkscape:corner0="0.88628326 : -0.0045017024 : 0 : 1"
       inkscape:corner7="0.045055881 : 0.0013578574 : -4.0590311 : 1">
      <path
         sodipodi:type="inkscape:box3dside"
         id="path6133"
         style="fill:#353564;fill-rule:evenodd;stroke:none;stroke-linejoin:round"
         inkscape:box3dsidetype="6"
         d="m 10.816715,297.02311 1.907686,-5.54032 -12.67227501,-5.3561 0.62362429,-1.81113 z"
         points="12.724401,291.48279 0.05212599,286.12669 0.67575028,284.31556 10.816715,297.02311 " />
      <path
         sodipodi:type="inkscape:box3dside"
         id="path6143"
         style="fill:#e9e9ff;fill-rule:evenodd;stroke:none;stroke-linejoin:round;fill-opacity:0.88944721"
         inkscape:box3dsidetype="11"
         d="M 0.67575028,284.31556 H 2.5164459 l -0.6236243,1.81113 H 0.05212599 Z"
         points="2.5164459,284.31556 1.8928216,286.12669 0.05212599,286.12669 0.67575028,284.31556 " />
      <path
         sodipodi:type="inkscape:box3dside"
         id="path6139"
         style="fill:#d7d7ff;fill-rule:evenodd;stroke:none;stroke-linejoin:round"
         inkscape:box3dsidetype="14"
         d="m 5.18597,297.02311 1.9076861,-5.54032 -5.2008345,-5.3561 0.6236243,-1.81113 z"
         points="7.0936561,291.48279 1.8928216,286.12669 2.5164459,284.31556 5.18597,297.02311 " />
      <path
         sodipodi:type="inkscape:box3dside"
         id="path6141"
         style="fill:#afafff;fill-rule:evenodd;stroke:none;stroke-linejoin:round;fill-opacity:0.88944721"
         inkscape:box3dsidetype="13"
         d="M 12.724401,291.48279 H 7.0936561 l -5.2008345,-5.3561 H 0.05212599 Z"
         points="7.0936561,291.48279 1.8928216,286.12669 0.05212599,286.12669 12.724401,291.48279 " />
      <path
         sodipodi:type="inkscape:box3dside"
         id="path6135"
         style="fill:#4d4d9f;fill-rule:evenodd;stroke:none;stroke-linejoin:round;opacity:0.186"
         inkscape:box3dsidetype="5"
         d="M 10.816715,297.02311 H 5.18597 L 2.5164459,284.31556 H 0.67575028 Z"
         points="5.18597,297.02311 2.5164459,284.31556 0.67575028,284.31556 10.816715,297.02311 " />
      <path
         sodipodi:type="inkscape:box3dside"
         id="path6137"
         style="fill:#8646bf;fill-rule:evenodd;stroke:none;stroke-linejoin:round;fill-opacity:0.41708547"
         inkscape:box3dsidetype="3"
         d="M 10.816715,297.02311 H 5.18597 l 1.9076861,-5.54032 h 5.6307449 z"
         points="5.18597,297.02311 7.0936561,291.48279 12.724401,291.48279 10.816715,297.02311 " />
    </g>
    <path
       sodipodi:type="star"
       style="opacity:0.7;fill:#080063;fill-opacity:0.8894472;stroke:none;stroke-width:0.26458332"
       id="path6149"
       sodipodi:sides="148"
       sodipodi:cx="3.1552153"
       sodipodi:cy="3.1369071"
       sodipodi:r1="0.51325476"
       sodipodi:r2="0.78962272"
       sodipodi:arg1="0.60459859"
       sodipodi:arg2="0.62582557"
       inkscape:flatsided="false"
       inkscape:rounded="0.1"
       inkscape:randomized="-0.103"
       d="M 3.6418428,3.4469201 C 3.629113,3.4716488 3.805044,3.5786342 3.7902806,3.6004636 3.7755171,3.622293 3.6003222,3.4241052 3.58053,3.4437926 3.5607378,3.4634801 3.8138626,3.5904815 3.8004183,3.6140376 3.786974,3.6375938 3.6452598,3.5041101 3.6252876,3.5243908 3.6053154,3.5446716 3.8375443,3.5576457 3.8180486,3.5791268 3.7985529,3.6006078 3.605466,3.4202455 3.5886681,3.441999 3.5718702,3.4637525 3.7997646,3.7333193 3.7789061,3.7502529 3.7580475,3.7671866 3.5702083,3.5193705 3.5513632,3.539662 3.532518,3.5599535 3.670635,3.7352992 3.6494683,3.7510096 3.6283016,3.7667201 3.5386173,3.5422562 3.5223335,3.563147 3.5060497,3.5840377 3.6496089,3.7654055 3.6258351,3.7810009 3.6020613,3.7965963 3.4411903,3.4840081 3.4192762,3.5020723 3.397362,3.5201365 3.6978008,3.7748505 3.6744878,3.7891483 3.6511748,3.8034461 3.4251437,3.5147637 3.4063853,3.5336474 3.3876269,3.552531 3.5963555,3.7783664 3.5772776,3.7977461 3.5581998,3.8171258 3.4063342,3.4928751 3.3841544,3.5074288 3.3619745,3.5219824 3.5888132,3.703099 3.5684765,3.7213239 3.5481398,3.7395489 3.4009382,3.6281894 3.3790866,3.6446709 3.357235,3.6611523 3.6746141,3.7429633 3.6496387,3.7550926 3.6246632,3.7672219 3.4930414,3.6125061 3.471548,3.6276834 c -0.021493,0.015177 0.040457,0.1995391 0.014005,0.2097875 -0.026452,0.010248 0.00398,-0.2280473 -0.020222,-0.2148024 -0.024201,0.013245 0.1413395,0.2563375 0.1174605,0.2696502 -0.023879,0.013313 -0.2559094,-0.3600238 -0.2780108,-0.3450497 -0.022101,0.014974 0.1547075,0.2600995 0.129939,0.2717326 -0.024769,0.011633 -0.013767,-0.2677083 -0.0388,-0.2551332 -0.025033,0.012575 0.0057,0.2644098 -0.019102,0.2738763 -0.024799,0.00947 0.064922,-0.1740206 0.037977,-0.1647734 -0.026945,0.00925 0.020455,0.1372047 -0.00682,0.1444316 -0.027274,0.00723 -0.1188889,-0.2617687 -0.1460713,-0.2559207 -0.027182,0.00585 0.1123254,0.3359629 0.087146,0.3440559 -0.025179,0.00809 0.038812,-0.2092433 0.011927,-0.2048876 -0.026884,0.00436 0.054756,0.2754871 0.026918,0.2789019 -0.027838,0.00341 -0.1450259,-0.2911506 -0.1715943,-0.281053 -0.026568,0.010098 0.1560645,0.2199942 0.1294072,0.227314 -0.026657,0.00732 -0.085434,-0.2220582 -0.1116427,-0.2123517 -0.026209,0.00971 0.014847,0.1872133 -0.012853,0.1929861 -0.0277,0.00577 -0.014304,-0.2670308 -0.042798,-0.2667739 -0.028494,2.569e-4 0.036651,0.3354933 0.00882,0.3393587 -0.027834,0.00387 0.044431,-0.3777288 0.01739,-0.3777776 -0.027042,-4.87e-5 0.056798,0.3020111 0.029099,0.3040409 -0.027699,0.00203 0.015514,-0.2378824 -0.011768,-0.2377842 -0.027282,9.82e-5 -0.00418,0.3035358 -0.031305,0.3045073 -0.027121,9.716e-4 0.021591,-0.3208467 -0.00712,-0.3215107 -0.028712,-6.639e-4 -0.072516,0.2330509 -0.1004845,0.2293964 -0.027969,-0.00365 0.1460169,-0.2883215 0.1177227,-0.2916272 -0.028294,-0.00331 0.028834,0.3899647 0.00178,0.391528 C 3.1754939,3.9813688 3.0829862,3.6936596 3.0553507,3.687784 3.0277153,3.6819083 3.112265,3.868821 3.086208,3.8637994 3.0601511,3.8587777 3.1989151,3.6468206 3.1708539,3.646961 3.1427926,3.6471014 3.0699957,3.8756669 3.0432098,3.8702396 3.016424,3.8648124 3.0623827,3.7104553 3.0343527,3.711072 3.0063227,3.7116888 3.1255558,3.8808966 3.098581,3.8805122 3.0716061,3.8801278 3.0803427,3.7008205 3.0518717,3.699188 3.0234007,3.6975554 3.0108062,3.8361498 2.9827485,3.8323116 2.9546907,3.8284735 3.0306929,3.5747345 3.0051034,3.5649989 2.9795139,3.5552632 2.9662428,3.9306393 2.9404381,3.9245931 2.9146335,3.9185468 3.0407557,3.6835252 3.0142284,3.6749076 2.987701,3.66629 3.0055026,3.8647987 2.9791347,3.8525707 2.9527668,3.8403427 2.9934899,3.7094099 2.9679064,3.701586 2.9423229,3.6937621 2.953937,3.9136656 2.9288057,3.9030488 2.9036743,3.8924319 3.00407,3.5478474 2.9773965,3.5423869 2.950723,3.5369263 2.8227438,3.8201522 2.796775,3.8112265 2.7708061,3.8023008 3.0128376,3.5537098 2.9873685,3.5410225 2.9618993,3.5283351 2.9206074,3.9151448 2.8925507,3.9075576 2.864494,3.8999705 3.0111975,3.6774365 2.9889303,3.6624083 2.9666631,3.6473802 2.7857252,3.8774237 2.7617805,3.8631799 2.7378358,3.8489361 2.953616,3.6165077 2.9264209,3.607528 2.8992258,3.5985482 2.8762613,3.8035829 2.8499962,3.7912323 2.8237312,3.7788817 2.9510804,3.5999486 2.9287997,3.5826019 2.9065191,3.5652551 2.7255197,3.8252059 2.7030027,3.810864 2.6804858,3.796522 2.9466049,3.5324248 2.9228741,3.5178155 2.8991434,3.5032063 2.7955388,3.8073595 2.7749338,3.7889313 2.7543289,3.7705032 2.8571108,3.6166168 2.8352753,3.6005962 2.8134398,3.5845756 2.7072613,3.8164453 2.6851565,3.797874 2.6630518,3.7793027 2.846434,3.4909925 2.8216021,3.4771981 2.7967701,3.4634038 2.7080644,3.7501637 2.6856478,3.7358301 2.6632312,3.7214965 2.8289634,3.5331381 2.8084864,3.5157244 2.7880094,3.4983108 2.6018988,3.7916046 2.5798855,3.7769765 2.5578722,3.7623483 2.9045291,3.5035436 2.8853942,3.4837039 2.8662593,3.4638641 2.5745293,3.7071561 2.555885,3.6861844 2.5372408,3.6652127 2.8741488,3.4456746 2.8559549,3.4247029 2.8377611,3.4037313 2.6174856,3.6438496 2.5973212,3.62513 2.5771568,3.6064105 2.8496908,3.5314968 2.826995,3.513651 2.8042992,3.4958052 2.6475647,3.694975 2.6308427,3.6726327 2.6141206,3.6502903 2.7980184,3.4873879 2.7813387,3.4658603 2.7646591,3.4443326 2.5977495,3.6116167 2.5835931,3.5883234 2.5694367,3.5650301 2.7498423,3.4586335 2.7363856,3.4354764 2.722929,3.4123193 2.6064726,3.6133658 2.5929651,3.5894045 2.5794576,3.5654432 2.7919748,3.4441106 2.7728241,3.422269 2.7536735,3.4004273 2.4493279,3.585348 2.4322132,3.5646217 2.4150985,3.5438954 2.736241,3.5218108 2.7204146,3.5003218 2.7045883,3.4788328 2.5279167,3.5668801 2.5157923,3.5427272 2.5036679,3.5185742 2.673814,3.3772173 2.660175,3.3541756 2.6465361,3.3311338 2.5177826,3.5710882 2.5025408,3.5468905 2.4872989,3.5226928 2.7559316,3.4279904 2.7458549,3.4007299 2.7357782,3.3734695 2.4965995,3.4988033 2.4817548,3.4752673 2.4669101,3.4517313 2.6802561,3.45708 2.6695171,3.4327894 2.6587781,3.4084988 2.4585635,3.4622708 2.4445321,3.4374635 2.4305006,3.4126561 2.6928794,3.4352995 2.6836119,3.4086598 2.6743444,3.3820201 2.4932275,3.5441802 2.480664,3.5184449 2.4681004,3.4927096 2.7583805,3.414344 2.7454735,3.3914167 2.7325665,3.3684895 2.4376936,3.3744999 2.4285104,3.3473487 2.4193273,3.3201974 2.6590576,3.3186462 2.6541388,3.2902129 2.64922,3.2617795 2.3718028,3.3913846 2.3603227,3.3649825 2.3488425,3.3385805 2.7131241,3.2599488 2.7089735,3.2332771 2.7048229,3.2066055 2.4470587,3.4235259 2.4384503,3.3986479 2.4298418,3.3737698 2.6034259,3.2902744 2.5932641,3.263663 2.5831024,3.2370516 2.3541622,3.4022293 2.3465222,3.3748714 2.3388822,3.3475135 2.6342969,3.2331572 2.632178,3.204694 c -0.00212,-0.028463 -0.2281367,0.03758 -0.2309045,0.00998 -0.00277,-0.027599 0.2675178,0.076492 0.2621254,0.050511 -0.00539,-0.025981 -0.286534,-0.036007 -0.2881406,-0.062615 -0.00161,-0.026607 0.3266796,-0.02939 0.3202722,-0.057713 -0.00641,-0.028323 -0.2823129,0.023829 -0.2890189,-0.00285 -0.00671,-0.026676 0.3034413,0.071274 0.3043635,0.043526 9.223e-4,-0.027748 -0.2824755,-0.00384 -0.2806301,-0.030693 0.00185,-0.026857 0.2918841,0.055322 0.2882982,0.028286 -0.00359,-0.027036 -0.2765082,0.037162 -0.2805146,0.011028 -0.00401,-0.026133 0.2769925,-0.061461 0.2803381,-0.088544 0.00335,-0.027083 -0.2805083,0.085277 -0.2800653,0.056722 4.429e-4,-0.028555 0.2713165,-0.051183 0.2718746,-0.078708 5.58e-4,-0.027524 -0.2897865,0.082127 -0.2875529,0.055477 0.00223,-0.02665 0.2791173,-0.017331 0.2804558,-0.045351 0.00134,-0.02802 -0.3095625,-0.022008 -0.3036488,-0.048896 0.00591,-0.026888 0.2783237,0.081955 0.2799319,0.053603 0.00161,-0.028351 -0.254863,-0.099657 -0.254624,-0.1263736 2.39e-4,-0.026717 0.2307046,0.1631382 0.2316584,0.1351667 9.539e-4,-0.027972 -0.284405,-0.1197798 -0.2783427,-0.1469457 0.00606,-0.027166 0.2327303,0.027551 0.2389139,0.00179 0.00618,-0.025763 -0.3106242,0.02162 -0.3015771,-0.00474 0.00905,-0.026357 0.4110396,0.1377641 0.4169437,0.1100287 0.0059,-0.027735 -0.3410262,-0.069106 -0.3332666,-0.096171 0.00776,-0.027065 0.2677558,-0.023162 0.2779271,-0.050088 0.010171,-0.026926 -0.214357,-0.00725 -0.2014918,-0.0327 0.012865,-0.02545 0.129825,0.1592528 0.1384297,0.1330084 C 2.6225372,2.9951929 2.370591,2.9240329 2.381689,2.8976414 2.3927869,2.87125 2.7072825,2.9848789 2.7144016,2.9593999 2.7215207,2.9339209 2.4256335,2.9228509 2.4344875,2.8979051 2.4433415,2.8729593 2.6985483,3.0274922 2.70859,3.0020233 2.7186317,2.9765544 2.3782918,2.7596285 2.3902202,2.7347913 2.4021486,2.709954 2.6133858,2.958457 2.6305496,2.9352229 2.6477134,2.9119887 2.4099138,2.8615652 2.4192923,2.8363412 2.4286708,2.8111172 2.6953305,2.9625082 2.7072215,2.9384199 2.7191124,2.9143316 2.4267372,2.6912994 2.4406752,2.6687674 2.4546131,2.6462354 2.7529038,2.9632805 2.7669907,2.9405286 2.7810776,2.9177768 2.4289998,2.6952587 2.4459046,2.6731344 2.4628094,2.65101 2.6610198,2.8946078 2.6738166,2.869599 2.6866134,2.8445903 2.5077767,2.7361352 2.5253788,2.7160556 c 0.017602,-0.02008 0.1859366,0.1186577 0.201149,0.095644 0.015213,-0.023014 -0.2370924,-0.1671952 -0.2198909,-0.1882558 0.017201,-0.021061 0.159107,0.1325767 0.1749685,0.1116162 0.015862,-0.02096 -0.2118485,-0.03345 -0.192761,-0.054736 0.019087,-0.021286 0.2197802,0.069003 0.2381495,0.049544 0.018369,-0.019459 -0.2210294,-0.07616 -0.1990122,-0.09403 0.022017,-0.01787 0.2072765,0.1018704 0.2275481,0.08395 C 2.7758015,2.7018688 2.6352684,2.5385214 2.6575922,2.5224935 2.6799159,2.5064655 2.7654593,2.714043 2.7847243,2.6923454 2.8039893,2.6706477 2.6591447,2.620511 2.6810527,2.6050909 2.7029606,2.5896708 2.8641001,2.7545907 2.8876142,2.7393679 2.9111284,2.7241451 2.6129993,2.489648 2.6324052,2.4703027 2.6518111,2.4509574 2.886461,2.8164604 2.9092767,2.8008825 2.9320925,2.7853046 2.7090262,2.4769992 2.7297802,2.4577462 2.7505342,2.4384933 2.8991883,2.7472889 2.922736,2.7340114 2.9462836,2.720734 2.714355,2.5162671 2.7384113,2.5021056 2.7624676,2.487944 2.9025655,2.7855681 2.9279712,2.7734837 2.9533769,2.7613993 2.6423449,2.5563003 2.6660181,2.5434158 c 0.023673,-0.012885 0.1666735,0.1068915 0.1870323,0.089899 0.020359,-0.016992 -0.057824,-0.1867214 -0.031543,-0.197283 0.026281,-0.010562 -0.00439,0.2125919 0.020055,0.2007502 0.024444,-0.011842 -0.1412598,-0.1082981 -0.1174631,-0.1249986 0.023797,-0.0167 0.2542138,0.1948548 0.2780108,0.1823874 0.023797,-0.012467 -0.1539694,-0.255415 -0.129939,-0.2717326 0.02403,-0.016318 0.014265,0.2694312 0.0388,0.2551333 0.024535,-0.014298 -0.00642,-0.2788082 0.019099,-0.2918871 0.025523,-0.013079 -0.044709,0.3445659 -0.020436,0.3329419 0.024273,-0.011624 -0.036051,-0.2708176 -0.010552,-0.2805373 0.025499,-0.00972 0.128631,0.1768483 0.1546755,0.172296 0.026044,-0.00455 -0.1215753,-0.23329 -0.095748,-0.2424205 0.025828,-0.00913 -0.038344,0.3375101 -0.011932,0.3315285 0.026411,-0.00598 -0.052045,-0.2474548 -0.02708,-0.2569325 0.024965,-0.00948 0.1542281,0.1933247 0.1805282,0.1895109 0.0263,-0.00381 -0.157647,-0.2381013 -0.1295747,-0.2413661 0.028072,-0.00326 0.076676,0.3219963 0.1030411,0.3139872 0.026366,-0.00801 -0.013997,-0.3608372 0.012686,-0.3697004 0.026683,-0.00886 0.014498,0.266236 0.042963,0.2628152 0.028465,-0.00342 -0.1905986,-0.2582112 -0.1628748,-0.2603211 0.027724,-0.00211 0.1094232,0.2999809 0.1366686,0.2987399 0.027245,-0.00124 -0.056318,-0.3134299 -0.029267,-0.3180929 0.027051,-0.00466 -0.015071,0.2506257 0.011935,0.2518363 0.027006,0.00121 0.00482,-0.3028697 0.03114,-0.3005487 0.026321,0.00232 -0.012213,0.4184837 0.015893,0.4146003 0.028107,-0.00388 0.063509,-0.3226867 0.091713,-0.3224859 0.028204,2.008e-4 -0.1439511,0.3109321 -0.1177201,0.3096379 0.026231,-0.00129 -0.029846,-0.266815 -0.00179,-0.2648873 0.028059,0.00193 0.1190825,0.1458244 0.1471982,0.14737 0.028116,0.00155 -0.057699,-0.1791561 -0.030857,-0.1760153 0.026842,0.00314 -0.1118857,0.2322688 -0.084478,0.2308904 0.027407,-0.00138 0.098929,-0.2428762 0.1274767,-0.2373307 0.028548,0.00555 -0.018406,0.3344638 0.00902,0.335882 0.02743,0.00142 -0.082018,-0.4225696 -0.055624,-0.4157272 0.026394,0.00684 0.00987,0.40476 0.038102,0.4096005 0.028236,0.00484 0.041012,-0.2946893 0.068958,-0.2918273 0.027946,0.00286 -0.041146,0.2039886 -0.013416,0.2117923 0.02773,0.0078 0.028777,-0.2945139 0.055729,-0.286063 0.026952,0.00845 -0.1000534,0.2377292 -0.073625,0.2457268 0.026428,0.008 0.00927,-0.1833343 0.035094,-0.1776631 0.025823,0.00567 -0.070554,0.1863632 -0.044466,0.1952878 0.026088,0.00892 0.077546,-0.1652593 0.1035668,-0.1526762 0.026021,0.012583 -0.084382,0.2655043 -0.057527,0.2715309 0.026855,0.00603 0.1561404,-0.2808977 0.1806216,-0.2688396 0.024481,0.012058 -0.2072665,0.1542943 -0.1818272,0.1646099 0.025439,0.010315 0.060844,-0.2895619 0.086049,-0.2789518 0.025205,0.01061 -0.1228257,0.2543245 -0.096377,0.26316 0.026449,0.00884 0.2012001,-0.2454864 0.2271446,-0.236793 0.025944,0.00869 -0.1893861,0.2610608 -0.1646378,0.2736626 0.024748,0.012602 0.050944,-0.1992488 0.07659,-0.1876629 0.025646,0.011586 -0.095348,0.270784 -0.070035,0.2837093 0.025313,0.012925 0.1297106,-0.3325112 0.1525672,-0.3161061 0.022857,0.016405 -0.1801582,0.327065 -0.1554054,0.3418351 0.024753,0.01477 0.1239635,-0.319329 0.1477702,-0.3031787 0.023807,0.01615 -0.082813,0.1902087 -0.060339,0.2063459 0.022474,0.016137 0.1263985,-0.2134857 0.1501188,-0.1972778 0.02372,0.016208 -0.1594368,0.3078161 -0.1364456,0.3206758 0.022991,0.01286 0.1241039,-0.2068513 0.1448881,-0.1875117 0.020784,0.01934 -0.1497163,0.1112264 -0.131775,0.1309747 0.017941,0.019748 0.2150135,-0.200633 0.2373699,-0.1861732 0.022356,0.01446 -0.2355196,0.1825221 -0.2159114,0.20147 0.019608,0.018948 0.2190709,-0.1291433 0.2399118,-0.1106779 0.020841,0.018466 -0.3211748,0.095866 -0.2999024,0.1128713 0.021272,0.017005 0.2295364,-0.1483238 0.2498621,-0.1308545 0.020326,0.017469 -0.2416316,0.1729656 -0.2210696,0.1905166 0.020562,0.017551 0.1698197,-0.2565107 0.1873833,-0.2340605 0.017564,0.02245 -0.1708836,0.1695811 -0.1504987,0.1887616 0.020385,0.019181 0.1926837,-0.2019311 0.2066847,-0.1779837 0.014001,0.023947 -0.1775862,0.2000295 -0.1615641,0.2224197 0.016022,0.02239 0.1297041,-0.1921598 0.1432531,-0.1679803 0.013549,0.02418 -0.1970713,0.1590853 -0.1796917,0.1811877 0.01738,0.022102 0.3239309,-0.1641361 0.340611,-0.1423527 0.01668,0.021783 -0.3056372,0.2103323 -0.2883662,0.2309208 0.017271,0.020589 0.1886515,-0.209717 0.2046249,-0.1870569 0.015973,0.02266 -0.154565,0.145765 -0.1443854,0.1705409 0.01018,0.024776 0.1409503,-0.2149686 0.1576343,-0.1927149 0.016684,0.022254 -0.2573325,0.1379001 -0.2431467,0.1602126 0.014186,0.022313 0.2560528,-0.040892 0.2728665,-0.017469 0.016814,0.023423 -0.2056557,0.1085469 -0.1966961,0.1340199 0.00896,0.025473 0.2143707,-0.2098723 0.2249824,-0.1853471 0.010612,0.024525 -0.2505553,0.040893 -0.2390746,0.064825 0.011481,0.023933 0.1963631,0.022915 0.2031127,0.048919 0.00675,0.026004 -0.2768924,0.1036197 -0.2648095,0.1270282 0.012083,0.023408 0.3108465,-0.1597503 0.3167957,-0.1326464 0.00595,0.027104 -0.2312813,0.01337 -0.225631,0.039125 0.00565,0.025755 0.2823253,-0.066741 0.2939861,-0.042707 0.011661,0.024034 -0.3556606,0.091981 -0.3488183,0.1176533 0.00684,0.025672 0.2608562,-0.028171 0.2705233,-0.00271 0.00967,0.025463 -0.1528604,0.052659 -0.1458748,0.079464 0.00699,0.026805 0.228496,-0.082103 0.2378029,-0.055688 0.00931,0.026415 -0.2903907,-0.019949 -0.2856558,0.00752 0.00473,0.027464 0.2251409,-0.018359 0.2309071,0.00803 0.00577,0.026389 -0.264042,-0.078661 -0.2621254,-0.050511 0.00192,0.02815 0.2165312,0.022148 0.2236798,0.04985 0.00715,0.027702 -0.2507304,-0.029924 -0.2468749,-0.00305 0.00386,0.026872 0.2740689,0.049808 0.2800824,0.076379 0.00601,0.026571 -0.3050404,-0.090177 -0.3043662,-0.061537 6.743e-4,0.02864 0.2833415,-0.01549 0.2806276,0.012682 -0.00271,0.028172 -0.2908448,-0.03644 -0.2882956,-0.010275 0.00255,0.026165 0.2805983,0.1197985 0.2806793,0.1476752 8.11e-5,0.027877 -0.2810235,-0.084314 -0.2803354,-0.056108 6.882e-4,0.028206 0.2766428,0.064226 0.2798979,0.091888 0.00326,0.027662 -0.2741666,-0.1127447 -0.2718746,-0.083954 0.00229,0.02879 0.2917979,-0.069894 0.2877203,-0.041424 -0.00408,0.028469 -0.2812471,0.00295 -0.2806232,0.031298 6.238e-4,0.028353 0.3086852,0.020458 0.3036488,0.048896 -0.00504,0.028438 -0.2773108,-0.086226 -0.2797671,-0.057562 -0.00246,0.028664 0.2564436,0.1156559 0.2546266,0.1443843 -0.00182,0.028728 -0.2272563,-0.01461 -0.2318259,0.013444 -0.00457,0.028054 0.2844692,-0.023915 0.2783454,0.00229 -0.00612,0.02621 -0.2218139,-0.1374057 -0.2299827,-0.1113407 -0.00817,0.026065 0.3053275,0.1585381 0.3015797,0.1854096 -0.00375,0.026872 -0.4151859,-0.047468 -0.4257127,-0.022445 -0.010527,0.025022 0.3367232,0.054096 0.3330992,0.082119 -0.00362,0.028022 -0.2668464,-0.137883 -0.2779271,-0.1125741 -0.011081,0.025309 0.2122769,0.00213 0.2016566,0.028742 -0.01062,0.026607 -0.1318283,0.00379 -0.1384297,0.029654 -0.0066,0.025867 0.2454748,-0.059246 0.2320788,-0.034908 -0.013396,0.024338 -0.3222362,-0.091599 -0.3325478,-0.065717 -0.010312,0.025882 0.2895403,0.1980291 0.2799141,0.2241572 -0.00963,0.026128 -0.2601791,-0.1056191 -0.2742647,-0.082149 -0.014086,0.02347 0.3355739,0.1178074 0.3271336,0.1436271 -0.00844,0.02582 -0.2388509,-0.2663133 -0.2490932,-0.239489 -0.010242,0.026824 0.2267748,0.090806 0.2114247,0.1129338 -0.01535,0.022128 -0.2760487,-1.835e-4 -0.2879344,0.024562 -0.011886,0.024746 0.2817356,0.1052387 0.2663841,0.1289596 C 3.8508664,3.6144045 3.5539865,3.4208315 3.5398971,3.4455631 3.5258077,3.4702947 3.8744728,3.5747781 3.8611558,3.6003687 3.8478389,3.6259593 3.6545725,3.4221913 3.6418428,3.4469201 Z"
       transform="translate(0,284.3)"
       inkscape:transform-center-x="0.0004521875"
       inkscape:transform-center-y="0.00064701855" />
  </g>
</svg>
